<svg xmlns="http://www.w3.org/2000/svg" width="1em" height="1em" viewBox="0 0 20 20">
    <path fill="currentColor" d="M17 5H3c-1.1 0-2 .9-2 2v6c0 1.1.9 2 2 2h14c1.1 0 2-.9 2-2V7c0-1.1-.9-2-2-2m1 7c0 .6-.4 1-1 1H3c-.6 0-1-.4-1-1V7c0-.6.4-1 1-1h14c.6 0 1 .4 1 1z"/>
    <line x1="33%" y1="6" x2="33%" y2="13" stroke="currentColor" />
    <line x1="66%" y1="6" x2="66%" y2="13" stroke="currentColor" />
    <circle cx="79%"  cy="47%" r=".5" fill="currentColor" stroke-width="0.5"  />
    <circle cx="79%" cy="37%" r=".5" fill="currentColor" stroke-width="0.5" />
    <circle cx="79%" cy="57%" r=".5" fill="currentColor" stroke-width="0.5" />
</svg>